#N canvas 1659 200 450 594 12;
#X obj 24 24 inlet $keyNumberIn;
#X obj 163 24 inlet $octaveIn;
#X msg 234 69 12;
#X obj 201 102 *, f 1;
#X obj 23 191 tabread scale-natural-minor;
#X obj 103 242 +;
#X obj 103 282 outlet $noteOut;
#X msg 267 107 60;
#X obj 227 152 +;
#X obj 251 247 print CAZZAROLA;
#X connect 0 0 4 0;
#X connect 1 0 2 0;
#X connect 1 0 3 0;
#X connect 2 0 3 1;
#X connect 3 0 7 0;
#X connect 3 0 8 0;
#X connect 4 0 5 0;
#X connect 4 0 9 0;
#X connect 5 0 6 0;
#X connect 7 0 8 1;
#X connect 8 0 5 1;
