#N canvas 1556 29 933 967 12;
#X obj 37 197 note2keynumber;
#X floatatom 37 162 5 0 0 0 - - -, f 5;
#X obj 37 232 keynumber2note;
#N canvas 0 22 450 300 (subpatch) 0;
#X array scale-natural-major 100 float 6 black black;
#X coords 0 1 100 -1 200 140 1;
#X restore 12 -1 graph;
#N canvas 0 22 450 300 (subpatch) 0;
#X array scale-natural-major-inverted 100 float 6 black black;
#X coords 0 1 100 -1 200 140 1;
#X restore 220 0 graph;
#X msg 414 232 \; scale-natural-major 0 0 2 4 5 7 9 11;
#X msg 413 281 \; scale-natural-major-inverted 0 0 0 1 0 2 3 0 4 0
5 0 6;
#N canvas 0 22 450 300 (subpatch) 0;
#X array scale-natural-minor 100 float 6 black black;
#X coords 0 1 100 -1 200 140 1;
#X restore 430 0 graph;
#X msg 414 330 \; scale-natural-minor 0 0 2 3 5 7 8 10;
#X obj 332 198 loadbang;
#X obj 414 377 print Scales loaded.;
#X obj 332 229 t b b b b;
#X obj 37 269 makenote 80 500;
#X obj 37 308 noteout 1;
#X connect 0 0 2 0;
#X connect 0 1 2 1;
#X connect 1 0 0 0;
#X connect 2 0 12 0;
#X connect 9 0 11 0;
#X connect 11 0 10 0;
#X connect 11 1 8 0;
#X connect 11 2 6 0;
#X connect 11 3 5 0;
#X connect 12 0 13 0;
#X connect 12 1 13 1;
