#N canvas 1556 29 933 967 12;
#X floatatom 37 160 5 0 0 0 - - -, f 5;
#N canvas 0 22 450 300 (subpatch) 0;
#X array scale-natural-major 100 float 6 black black;
#X coords 0 1 100 -1 200 140 1;
#X restore 12 -1 graph;
#N canvas 0 22 450 300 (subpatch) 0;
#X array scale-natural-major-inverted 100 float 6 black black;
#X coords 0 1 100 -1 200 140 1;
#X restore 220 0 graph;
#X msg 299 194 \; scale-natural-major 0 0 2 4 5 7 9 11;
#N canvas 0 22 450 300 (subpatch) 0;
#X array scale-natural-minor 100 float 6 black black;
#X coords 0 1 100 -1 200 140 1;
#X restore 430 0 graph;
#X msg 299 292 \; scale-natural-minor 0 0 2 3 5 7 8 10;
#X obj 217 160 loadbang;
#X obj 298 338 print Scales loaded.;
#X obj 217 191 t b b b b;
#X obj 37 275 makenote 80 500;
#X obj 37 314 noteout 1;
#X obj 37 238 scaleposition2note;
#X obj 37 197 note2keyposition;
#X msg 298 243 \; scale-natural-major-inverted 0 0 -1 1 -1 2 3 -1 4
-1 5 -1 6, f 61;
#X connect 0 0 12 0;
#X connect 6 0 8 0;
#X connect 8 0 7 0;
#X connect 8 1 5 0;
#X connect 8 2 13 0;
#X connect 8 3 3 0;
#X connect 9 0 10 0;
#X connect 9 1 10 1;
#X connect 11 0 9 0;
#X connect 12 0 11 0;
#X connect 12 1 11 1;
