#N canvas 1556 29 933 967 12;
#N canvas 0 22 450 300 (subpatch) 0;
#X array scale-natural-major 100 float 6 black black;
#X coords 0 1 100 -1 200 140 1;
#X restore 12 -1 graph;
#N canvas 0 22 450 300 (subpatch) 0;
#X array scale-natural-major-inverted 100 float 6 black black;
#X coords 0 1 100 -1 200 140 1;
#X restore 220 0 graph;
#N canvas 0 22 450 300 (subpatch) 0;
#X array scale-natural-minor 100 float 6 black black;
#X coords 0 1 100 -1 200 140 1;
#X restore 430 0 graph;
#X obj 295 344 r notesIn-\$1;
#X obj 295 649 s notesOut-\$1;
#X obj 14 167 r loaddefs-\$1;
#X msg 14 234 loaddefinitions \$1;
#X obj 172 167 r loadbang-\$1;
#X obj 172 234 print loading definiton for \$1;
#X obj 14 199 symbol;
#X obj 16 344 inlet~ inL-\$1;
#X obj 137 344 inlet~ inR-\$1;
#X obj 18 649 outlet~ outL-\$1;
#X obj 138 649 outlet~ outR-\$1;
#X obj 415 343 r auxIn-\$1;
#X obj 414 366 r expIn-\$1;
#X obj 414 391 r fsIn-\$1;
#X obj 172 203 print loaded:default into \$1, f 35;
#X obj 295 477 scaleposition2note;
#X obj 295 437 note2keyposition;
#X msg 585 207 \; scale-natural-major 0 0 2 4 5 7 9 11;
#X msg 585 305 \; scale-natural-minor 0 0 2 3 5 7 8 10;
#X msg 584 256 \; scale-natural-major-inverted 0 0 -1 1 -1 2 3 -1 4
-1 5 -1 6, f 61;
#X obj 503 204 t b b b;
#X obj 14 270 KontrolModule \$1 U-scales;
#X connect 3 0 19 0;
#X connect 5 0 9 0;
#X connect 5 0 8 0;
#X connect 6 0 24 0;
#X connect 7 0 17 0;
#X connect 7 0 23 0;
#X connect 9 0 6 0;
#X connect 10 0 12 0;
#X connect 11 0 13 0;
#X connect 18 0 4 0;
#X connect 19 0 18 0;
#X connect 19 1 18 1;
#X connect 23 0 21 0;
#X connect 23 1 22 0;
#X connect 23 2 20 0;
