#N canvas 921 221 488 672 12;
#X text 89 194 this is the note corresponding to the Organelle's leftmost
key, f 32;
#X obj 23 239 -, f 1;
#X obj 98 331 /;
#X text 128 366 This is the number of octaves in input;
#X obj 98 367 i;
#X obj 23 403 %, f 2;
#X text 51 402 This is the number of semitones in the current major
scale;
#X obj 23 440 tabread scale-natural-major-inverted;
#X obj 22 144 inlet $noteIn;
#X obj 23 479 outlet $notePosition;
#X obj 190 478 outlet $octaveNumber;
#X msg 53 193 60;
#X msg 95 289 12;
#X text 22 10 Given an input MIDI pitch number from an Organelle \,
it calculates the position of the white key being pressed (0 to 6)
and the octave number of where in the keyboard it was pressed. If the
key pressed was black \, the returned key position is -1 E.g. if the
note in is 72 \, C4 is being pressed on the Organelle and the function
returns 0 \, 1 (first key \, second octave).;
#X connect 1 0 2 0;
#X connect 1 0 5 0;
#X connect 1 0 12 0;
#X connect 2 0 4 0;
#X connect 4 0 10 0;
#X connect 5 0 7 0;
#X connect 7 0 9 0;
#X connect 8 0 11 0;
#X connect 8 0 1 0;
#X connect 11 0 1 1;
#X connect 12 0 2 1;
#X connect 12 0 5 1;
