#N canvas 921 221 488 611 12;
#X text 90 145 this is the note corresponding to the Organelle's leftmost
key, f 32;
#X obj 24 190 -, f 1;
#X obj 99 282 /;
#X text 129 317 This is the number of octaves in input;
#X obj 99 318 i;
#X obj 24 354 %, f 2;
#X text 52 353 This is the number of semitones in the current major
scale;
#X obj 24 391 tabread scale-natural-major-inverted;
#X obj 23 95 inlet $noteIn;
#X obj 24 430 outlet $notePosition;
#X obj 191 429 outlet $octaveNumber;
#X msg 54 144 60;
#X msg 96 240 12;
#X text 22 10 Calculates from the Organelle note in input the position
of the white key being pressed (0 to 6) and the octave number of where
in the keyboard it was pressed. E.g. if the note in is 72 \, C4 is
being pressed on the Organelle.;
#X connect 1 0 2 0;
#X connect 1 0 5 0;
#X connect 1 0 12 0;
#X connect 2 0 4 0;
#X connect 4 0 10 0;
#X connect 5 0 7 0;
#X connect 7 0 9 0;
#X connect 8 0 11 0;
#X connect 8 0 1 0;
#X connect 11 0 1 1;
#X connect 12 0 2 1;
#X connect 12 0 5 1;
