#N canvas 1619 72 772 586 12;
#X msg 140 -386 list 0 1 2 3 4 5 6;
#X obj 192 -341 list-drip2;
#X obj 245 -480 loadbang;
#X obj 347 -422 print Loading the natural major scale...;
#X msg 310 -385 list 0 2 2 1 2 2 2;
#X obj 357 -321 print Natural major scale loaded.;
#X obj 108 -173 tabwrite scale-natural-major;
#X obj 74 -545 table scale-natural-major;
#X obj 245 -443 t b b b b;
#X floatatom 393 -230 5 0 0 0 - - -, f 5;
#X obj 330 -231 +;
#X obj 75 -515 table scale-natural-major-inverted;
#X obj 80 -141 tabwrite scale-natural-major-inverted;
#X msg 322 -283 0;
#X connect 0 0 1 0;
#X connect 1 0 6 1;
#X connect 1 0 12 0;
#X connect 1 1 10 0;
#X connect 1 2 5 0;
#X connect 2 0 8 0;
#X connect 4 0 1 1;
#X connect 8 0 0 0;
#X connect 8 1 4 0;
#X connect 8 2 13 0;
#X connect 8 3 3 0;
#X connect 9 0 10 1;
#X connect 10 0 9 0;
#X connect 10 0 6 0;
#X connect 10 0 12 1;
#X connect 13 0 9 0;
