#N canvas 526 302 966 509 12;
#X msg 51 -423 list 0 1 2 3 4 5 6;
#X obj 103 -378 list-drip2;
#X obj 156 -517 loadbang;
#X obj 156 -480 t b b b b;
#X floatatom 304 -267 5 0 0 0 - - -, f 5;
#X obj 241 -268 +;
#X obj 258 -459 print Loading the natural minor scale...;
#X obj 268 -358 print Natural minor scale loaded.;
#X obj 74 -545 table scale-natural-minor;
#X msg 221 -422 list 0 2 1 2 2 1 2;
#X obj 19 -210 tabwrite scale-natural-minor;
#X msg 264 -314 0;
#X connect 0 0 1 0;
#X connect 1 0 10 1;
#X connect 1 1 5 0;
#X connect 1 2 7 0;
#X connect 2 0 3 0;
#X connect 3 0 0 0;
#X connect 3 1 9 0;
#X connect 3 2 11 0;
#X connect 3 3 6 0;
#X connect 4 0 5 1;
#X connect 5 0 4 0;
#X connect 5 0 10 0;
#X connect 9 0 1 1;
#X connect 11 0 4 0;
