#N canvas 1026 209 450 594 12;
#X obj 17 83 inlet $keyNumberIn;
#X obj 156 83 inlet $octaveIn;
#X msg 227 128 12;
#X obj 194 161 *, f 1;
#X obj 17 250 tabread scale-natural-minor;
#X obj 97 301 +;
#X obj 97 341 outlet $noteOut;
#X msg 260 166 60;
#X obj 220 211 +;
#X obj 17 164 spigot;
#X text 17 11 Given the position of a note on a scale \, and its octave
\, it generates the corresponding MIDI pitch. If the position is -1
\, it is considered invalid and no output is produced.;
#X obj 56 123 == -1;
#X connect 0 0 9 0;
#X connect 0 0 11 0;
#X connect 1 0 2 0;
#X connect 1 0 3 0;
#X connect 2 0 3 1;
#X connect 3 0 7 0;
#X connect 3 0 8 0;
#X connect 4 0 5 0;
#X connect 5 0 6 0;
#X connect 7 0 8 1;
#X connect 8 0 5 1;
#X connect 9 0 4 0;
#X connect 11 0 9 1;
