#N canvas 1626 725 786 281 12;
#X obj 45 40 note2keynumber;
#X floatatom 45 9 5 0 0 0 - - -, f 5;
#X obj 18 99 print KEY NUMBER;
#X obj 147 98 print OCTAVE NUMBER;
#X obj 333 14 scales-natural-major-loader;
#X obj 332 41 scales-natural-minor-loader;
#X obj 48 188 keynumber2note;
#X obj 56 233 print NOTE OUT;
#X obj 328 127 tabread scale-natural-major;
#X obj 349 187 print;
#X msg 351 90 0;
#X connect 0 0 2 0;
#X connect 0 0 6 0;
#X connect 0 1 3 0;
#X connect 0 1 6 1;
#X connect 1 0 0 0;
#X connect 6 0 7 0;
#X connect 8 0 9 0;
#X connect 10 0 8 0;
