#N canvas 1584 80 941 880 12;
#X msg 724 738 60;
#X text 656 738 60 is C3;
#X msg 764 739 64;
#X msg 807 739 67;
#X obj 749 689 t b b b;
#X obj 751 604 spigot;
#X obj 750 558 == 100;
#X floatatom 38 122 5 0 0 0 - - -, f 5;
#X msg 539 180 list 0 1 2 3 4 5 6;
#X msg 709 181 list 0 2 1 2 2 1 2;
#X obj 556 271 list-drip2;
#X text 707 156 natural minor;
#X obj 583 361 tabwrite natural-minor;
#X obj 540 49 table natural-minor;
#X obj 538 81 loadbang;
#X obj 693 106 print Loading the scales...;
#X obj 539 113 t b b b;
#X text 274 32 this is the specified root note;
#X text 82 121 this is the played note;
#X msg 65 155 60;
#X obj 38 184 -;
#X msg 64 217 2;
#X obj 38 247 /;
#X obj 38 283 i;
#X text 75 282 this is the position of the white key that was pressed
on the Organelle \; 0 is the leftmost key \; negative numbers likely
mean that the user is using an external keyboard;
#X obj 36 688 tabread natural-minor;
#X obj 70 446 /;
#X msg 90 413 7;
#X obj 70 480 i;
#X text 104 480 this is the number of octaves up or down;
#X msg 101 517 12;
#X obj 70 545 *;
#X obj 36 646 %;
#X msg 58 598 7;
#X text 69 646 this is the position on the target scale;
#X text 69 724 this is the number of semitones up from the root note
;
#X obj 36 725 +;
#X obj 36 776 makenote 80 500;
#X obj 36 830 noteout 1;
#X obj 773 319 print Scales loaded.;
#X obj 291 776 print Playing;
#X text 102 153 this is the note corresponding to the leftmost white
key on the organelle;
#X msg 277 58 60;
#X obj 209 568 print NOTE ON THE TARGET SCALE;
#X connect 4 0 0 0;
#X connect 4 1 2 0;
#X connect 4 2 3 0;
#X connect 5 0 4 0;
#X connect 6 0 5 1;
#X connect 6 0 5 0;
#X connect 7 0 19 0;
#X connect 7 0 20 0;
#X connect 8 0 10 0;
#X connect 9 0 10 1;
#X connect 10 0 12 1;
#X connect 10 1 12 0;
#X connect 10 2 39 0;
#X connect 14 0 16 0;
#X connect 16 0 8 0;
#X connect 16 1 9 0;
#X connect 16 2 15 0;
#X connect 19 0 20 1;
#X connect 20 0 21 0;
#X connect 20 0 22 0;
#X connect 21 0 22 1;
#X connect 22 0 23 0;
#X connect 23 0 27 0;
#X connect 23 0 26 0;
#X connect 23 0 33 0;
#X connect 23 0 32 0;
#X connect 25 0 36 0;
#X connect 26 0 28 0;
#X connect 27 0 26 1;
#X connect 28 0 30 0;
#X connect 28 0 31 0;
#X connect 30 0 31 1;
#X connect 31 0 36 1;
#X connect 32 0 25 0;
#X connect 32 0 43 0;
#X connect 33 0 32 1;
#X connect 36 0 37 0;
#X connect 36 0 40 0;
#X connect 37 0 38 0;
#X connect 37 1 38 1;
#X connect 42 0 36 1;
